<svg width="28" height="28" viewBox="0 0 28 28" fill="none" xmlns="http://www.w3.org/2000/svg">
<circle cx="14" cy="14" r="14" fill="#DADFE8"/>
<path fill-rule="evenodd" clip-rule="evenodd" d="M14.0001 7.16663C13.5398 7.16663 13.1667 7.53972 13.1667 7.99996V13.1666H8.00008C7.53984 13.1666 7.16675 13.5397 7.16675 14C7.16675 14.4602 7.53984 14.8333 8.00008 14.8333H13.1667V20C13.1667 20.4602 13.5398 20.8333 14.0001 20.8333C14.4603 20.8333 14.8334 20.4602 14.8334 20V14.8333H20.0001C20.4603 14.8333 20.8334 14.4602 20.8334 14C20.8334 13.5397 20.4603 13.1666 20.0001 13.1666H14.8334V7.99996C14.8334 7.53972 14.4603 7.16663 14.0001 7.16663Z" fill="#4C5A6F"/>
</svg>
