<svg width="28" height="28" viewBox="0 0 28 28" fill="none" xmlns="http://www.w3.org/2000/svg">
<circle cx="14" cy="14" r="13.7083" fill="white" stroke="#DADFE8" stroke-width="0.583333"/>
<path fill-rule="evenodd" clip-rule="evenodd" d="M14.3333 8.66671C12.8597 8.66671 11.5268 9.26347 10.5608 10.2301C10.0556 10.7356 9.48201 11.4209 9.02053 12H11.6667C12.0349 12 12.3333 12.2985 12.3333 12.6667C12.3333 13.0349 12.0349 13.3334 11.6667 13.3334H7.66667C7.29848 13.3334 7 13.0349 7 12.6667V8.66671C7 8.29852 7.29848 8.00004 7.66667 8.00004C8.03486 8.00004 8.33333 8.29852 8.33333 8.66671V10.7297C8.73459 10.2417 9.19123 9.71435 9.61766 9.28763C10.8235 8.08097 12.4917 7.33337 14.3333 7.33337C18.0152 7.33337 21 10.3181 21 14C21 17.6819 18.0152 20.6667 14.3333 20.6667C12.0138 20.6667 9.97141 19.4816 8.77818 17.687C8.57432 17.3803 8.65761 16.9665 8.96422 16.7627C9.27082 16.5588 9.68463 16.6421 9.88849 16.9487C10.8451 18.3875 12.4789 19.3334 14.3333 19.3334C17.2789 19.3334 19.6667 16.9456 19.6667 14C19.6667 11.0545 17.2789 8.66671 14.3333 8.66671Z" fill="#4C5A6F"/>
</svg>
